<svg width="19" height="13" viewBox="0 0 19 13" fill="none" xmlns="http://www.w3.org/2000/svg">
<path opacity="0.8" fill-rule="evenodd" clip-rule="evenodd" d="M8.72258 0.0196853C5.65486 0.2159 2.75947 2.03987 0.45113 5.23028C-0.151588 6.06331 -0.151116 6.21132 0.457008 7.05409C2.7606 10.2466 5.66596 12.0696 8.74816 12.2563C12.2366 12.4676 15.5328 10.6381 18.1295 7.04905C18.7322 6.21603 18.7318 6.06802 18.1236 5.22525C16.4409 2.89315 14.4389 1.29085 12.2249 0.504301C11.5371 0.259959 10.7039 0.0814252 10.0522 0.0386946C9.34108 -0.00790231 9.18775 -0.0100771 8.72258 0.0196853ZM10.0577 1.89476C11.1005 2.11264 12.1025 2.89995 12.6453 3.92787C13.3002 5.16834 13.3693 6.66887 12.8299 7.93681C12.6193 8.43162 12.4182 8.75345 12.0716 9.14986C10.1322 11.3684 6.82782 10.6901 5.703 7.84253C5.29708 6.8149 5.28942 5.5596 5.68257 4.48844C6.06506 3.44631 6.89679 2.53383 7.84154 2.11993C8.56 1.80519 9.27918 1.73209 10.0577 1.89476ZM8.90936 3.84245C8.31934 3.98409 7.7971 4.39263 7.49802 4.94656C7.27815 5.35376 7.20439 5.6561 7.20693 6.13967C7.20943 6.60628 7.24684 6.79448 7.41486 7.18574C7.56928 7.54523 8.02023 8.04422 8.35087 8.22147C9.5152 8.84555 10.8695 8.21076 11.2885 6.84446C11.4084 6.45361 11.4117 5.84084 11.2962 5.43318C11.0324 4.50282 10.2627 3.85453 9.38103 3.82025C9.20143 3.81329 8.98918 3.82328 8.90936 3.84245Z" fill="#99B7D4"/>
</svg>
